<svg width="33" height="18" viewBox="0 0 33 18" fill="none" xmlns="http://www.w3.org/2000/svg">
<path d="M30.9155 6.51681L25.7616 1.30958C25.6378 1.18476 25.4905 1.08568 25.3282 1.01807C25.1659 0.950459 24.9918 0.915649 24.816 0.915649C24.6402 0.915649 24.4662 0.950459 24.3039 1.01807C24.1416 1.08568 23.9943 1.18476 23.8705 1.30958C23.6224 1.55911 23.4832 1.89665 23.4832 2.24848C23.4832 2.60032 23.6224 2.93786 23.8705 3.18738L28.6116 7.96844H1.45677C1.10356 7.96844 0.764822 8.10875 0.515067 8.35851C0.265311 8.60826 0.125 8.947 0.125 9.30021C0.125 9.65342 0.265311 9.99216 0.515067 10.2419C0.764822 10.4917 1.10356 10.632 1.45677 10.632H28.6915L23.8705 15.4397C23.7456 15.5635 23.6466 15.7108 23.579 15.8731C23.5113 16.0354 23.4765 16.2094 23.4765 16.3852C23.4765 16.561 23.5113 16.7351 23.579 16.8974C23.6466 17.0597 23.7456 17.207 23.8705 17.3308C23.9943 17.4556 24.1416 17.5547 24.3039 17.6223C24.4662 17.6899 24.6402 17.7247 24.816 17.7247C24.9918 17.7247 25.1659 17.6899 25.3282 17.6223C25.4905 17.5547 25.6378 17.4556 25.7616 17.3308L30.9155 12.1635C31.6637 11.4144 32.084 10.3989 32.084 9.34016C32.084 8.2814 31.6637 7.26593 30.9155 6.51681Z" fill="#5F60ED"/>
</svg>
