<svg width="25" height="26" viewBox="0 0 25 26" fill="none" xmlns="http://www.w3.org/2000/svg">
<path d="M4.47604 11.0311L4.16776 11.3394L4.36548 11.728C6.36887 15.6652 9.59515 18.8768 13.5293 20.8925L13.9184 21.0919L14.2276 20.7827L17.1996 17.8107C17.4027 17.6075 17.703 17.5424 17.9582 17.6299L17.9582 17.6299L17.9646 17.632C19.5383 18.1519 21.2364 18.4323 22.9757 18.4323C23.3871 18.4323 23.7262 18.7714 23.7262 19.1828V23.8975C23.7262 24.3089 23.3871 24.648 22.9757 24.648C10.6223 24.648 0.610717 14.6364 0.610717 2.28303C0.610717 1.87163 0.949814 1.53253 1.36122 1.53253H6.08938C6.50079 1.53253 6.83988 1.87163 6.83988 2.28303C6.83988 4.0343 7.11986 5.71732 7.63863 7.28934C7.7215 7.55726 7.66025 7.84691 7.44803 8.05913L4.47604 11.0311Z" fill="#ED5F5F" stroke="#ED5F5F" stroke-width="1.2008"/>
</svg>
