<svg width="151.11" height="49.37" viewBox="0 0 183 62" fill="none" xmlns="http://www.w3.org/2000/svg">
<path d="M96.1536 12.9816V30.8752H92.0125V23.5388H83.8836V30.8752H79.7425V12.9816H83.8836V20.0368H92.0125V12.9816H96.1536ZM106.65 31.0797C105.201 31.0797 103.898 30.7815 102.739 30.1851C101.597 29.5716 100.702 28.728 100.055 27.6544C99.4072 26.5808 99.0835 25.3623 99.0835 23.999C99.0835 22.6356 99.4072 21.4172 100.055 20.3435C100.702 19.2699 101.597 18.4349 102.739 17.8384C103.898 17.2249 105.201 16.9182 106.65 16.9182C108.098 16.9182 109.394 17.2249 110.535 17.8384C111.677 18.4349 112.572 19.2699 113.219 20.3435C113.867 21.4172 114.191 22.6356 114.191 23.999C114.191 25.3623 113.867 26.5808 113.219 27.6544C112.572 28.728 111.677 29.5716 110.535 30.1851C109.394 30.7815 108.098 31.0797 106.65 31.0797ZM106.65 27.8078C107.672 27.8078 108.507 27.4669 109.155 26.7853C109.82 26.0866 110.152 25.1578 110.152 23.999C110.152 22.8401 109.82 21.9199 109.155 21.2382C108.507 20.5395 107.672 20.1902 106.65 20.1902C105.627 20.1902 104.784 20.5395 104.119 21.2382C103.455 21.9199 103.122 22.8401 103.122 23.999C103.122 25.1578 103.455 26.0866 104.119 26.7853C104.784 27.4669 105.627 27.8078 106.65 27.8078ZM120.665 18.9376C121.142 18.273 121.781 17.7703 122.582 17.4294C123.4 17.0886 124.338 16.9182 125.394 16.9182V20.5992C124.951 20.5651 124.653 20.548 124.499 20.548C123.358 20.548 122.463 20.8718 121.815 21.5194C121.168 22.15 120.844 23.1043 120.844 24.3824V30.8752H116.856V17.1227H120.665V18.9376ZM127.765 17.1227H131.753V30.8752H127.765V17.1227ZM129.759 15.2055C129.026 15.2055 128.43 14.9925 127.97 14.5665C127.51 14.1404 127.28 13.6121 127.28 12.9816C127.28 12.351 127.51 11.8228 127.97 11.3967C128.43 10.9707 129.026 10.7577 129.759 10.7577C130.492 10.7577 131.088 10.9622 131.548 11.3712C132.009 11.7802 132.239 12.2914 132.239 12.9049C132.239 13.5695 132.009 14.1234 131.548 14.5665C131.088 14.9925 130.492 15.2055 129.759 15.2055ZM146.778 27.8078V30.8752H134.508V28.4724L141.512 20.1902H134.687V17.1227H146.548V19.5256L139.544 27.8078H146.778ZM155.703 31.0797C154.254 31.0797 152.95 30.7815 151.792 30.1851C150.65 29.5716 149.755 28.728 149.108 27.6544C148.46 26.5808 148.136 25.3623 148.136 23.999C148.136 22.6356 148.46 21.4172 149.108 20.3435C149.755 19.2699 150.65 18.4349 151.792 17.8384C152.95 17.2249 154.254 16.9182 155.703 16.9182C157.151 16.9182 158.446 17.2249 159.588 17.8384C160.73 18.4349 161.625 19.2699 162.272 20.3435C162.92 21.4172 163.244 22.6356 163.244 23.999C163.244 25.3623 162.92 26.5808 162.272 27.6544C161.625 28.728 160.73 29.5716 159.588 30.1851C158.446 30.7815 157.151 31.0797 155.703 31.0797ZM155.703 27.8078C156.725 27.8078 157.56 27.4669 158.208 26.7853C158.872 26.0866 159.205 25.1578 159.205 23.999C159.205 22.8401 158.872 21.9199 158.208 21.2382C157.56 20.5395 156.725 20.1902 155.703 20.1902C154.68 20.1902 153.837 20.5395 153.172 21.2382C152.507 21.9199 152.175 22.8401 152.175 23.999C152.175 25.1578 152.507 26.0866 153.172 26.7853C153.837 27.4669 154.68 27.8078 155.703 27.8078ZM174.268 16.9182C175.972 16.9182 177.344 17.4294 178.384 18.4519C179.44 19.4744 179.968 20.9911 179.968 23.002V30.8752H175.981V23.6155C175.981 22.5249 175.742 21.7154 175.265 21.1871C174.788 20.6418 174.098 20.3691 173.194 20.3691C172.189 20.3691 171.388 20.6844 170.791 21.3149C170.195 21.9284 169.897 22.8487 169.897 24.0757V30.8752H165.909V17.1227H169.718V18.7331C170.246 18.1537 170.902 17.7106 171.686 17.4039C172.47 17.0801 173.331 16.9182 174.268 16.9182ZM90.0389 41.9321C89.93 41.0123 89.4882 40.2982 88.7136 39.7898C87.939 39.2815 86.9889 39.0273 85.8633 39.0273C85.0402 39.0273 84.3201 39.1605 83.7028 39.4267C83.0916 39.693 82.6135 40.0591 82.2686 40.5251C81.9297 40.9911 81.7602 41.5206 81.7602 42.1137C81.7602 42.6099 81.8782 43.0366 82.1142 43.3936C82.3563 43.7446 82.6649 44.0381 83.0401 44.2741C83.4153 44.5041 83.8087 44.6947 84.2202 44.846C84.6317 44.9913 85.01 45.1093 85.3549 45.2001L87.243 45.7084C87.7272 45.8355 88.2658 46.011 88.8589 46.2349C89.458 46.4588 90.0299 46.7644 90.5745 47.1517C91.1252 47.533 91.5791 48.0232 91.9361 48.6223C92.2932 49.2214 92.4717 49.9567 92.4717 50.8281C92.4717 51.8327 92.2085 52.7405 91.682 53.5514C91.1615 54.3623 90.399 55.0068 89.3944 55.4849C88.3959 55.963 87.1825 56.202 85.7543 56.202C84.423 56.202 83.2701 55.9872 82.2958 55.5575C81.3275 55.1279 80.565 54.5287 80.0082 53.7602C79.4575 52.9916 79.1459 52.099 79.0733 51.0823H81.3971C81.4576 51.7843 81.6936 52.3653 82.1052 52.8252C82.5227 53.2791 83.0492 53.618 83.6846 53.8419C84.3261 54.0597 85.016 54.1687 85.7543 54.1687C86.6137 54.1687 87.3853 54.0295 88.0691 53.7511C88.7529 53.4667 89.2946 53.0733 89.694 52.571C90.0934 52.0627 90.2931 51.4696 90.2931 50.7918C90.2931 50.1745 90.1206 49.6723 89.7757 49.2849C89.4307 48.8976 88.9769 48.5829 88.4141 48.3409C87.8512 48.0988 87.243 47.887 86.5895 47.7055L84.3019 47.0519C82.8495 46.6343 81.6997 46.0382 80.8525 45.2636C80.0052 44.489 79.5816 43.4753 79.5816 42.2226C79.5816 41.1817 79.863 40.274 80.4258 39.4994C80.9947 38.7187 81.7572 38.1135 82.7134 37.6838C83.6756 37.2481 84.7497 37.0303 85.9359 37.0303C87.1341 37.0303 88.1992 37.2451 89.1312 37.6748C90.0631 38.0984 90.8014 38.6793 91.3461 39.4177C91.8968 40.156 92.1873 40.9941 92.2175 41.9321H90.0389ZM97.2624 61.1039C96.8993 61.1039 96.5755 61.0737 96.2911 61.0131C96.0067 60.9587 95.81 60.9042 95.701 60.8497L96.2457 58.9616C96.7661 59.0947 97.2261 59.1432 97.6255 59.1069C98.0249 59.0705 98.3789 58.892 98.6876 58.5713C99.0022 58.2566 99.2897 57.7452 99.5499 57.0372L99.9493 55.9479L94.7933 41.9321H97.1171L100.966 53.043H101.111L104.96 41.9321H107.284L101.365 57.9086C101.099 58.6288 100.769 59.2249 100.376 59.6969C99.9826 60.175 99.5257 60.529 99.0053 60.759C98.4909 60.9889 97.9099 61.1039 97.2624 61.1039ZM119.988 45.0548L118.064 45.5995C117.943 45.2787 117.764 44.9671 117.528 44.6645C117.298 44.3558 116.983 44.1017 116.584 43.902C116.185 43.7023 115.673 43.6024 115.05 43.6024C114.197 43.6024 113.485 43.7991 112.917 44.1924C112.354 44.5798 112.072 45.073 112.072 45.6721C112.072 46.2046 112.266 46.6252 112.653 46.9339C113.041 47.2425 113.646 47.4997 114.469 47.7055L116.539 48.2138C117.785 48.5164 118.714 48.9793 119.325 49.6027C119.937 50.2199 120.242 51.0157 120.242 51.9901C120.242 52.7889 120.012 53.503 119.552 54.1324C119.098 54.7617 118.463 55.258 117.646 55.6211C116.829 55.9842 115.879 56.1657 114.796 56.1657C113.374 56.1657 112.196 55.8571 111.264 55.2398C110.333 54.6225 109.742 53.7208 109.494 52.5347L111.528 52.0264C111.721 52.7768 112.088 53.3396 112.626 53.7148C113.171 54.09 113.882 54.2776 114.759 54.2776C115.758 54.2776 116.551 54.0658 117.138 53.6422C117.731 53.2125 118.027 52.6981 118.027 52.099C118.027 51.6148 117.858 51.2094 117.519 50.8826C117.18 50.5498 116.66 50.3016 115.958 50.1382L113.634 49.5936C112.357 49.291 111.419 48.822 110.82 48.1866C110.227 47.5451 109.93 46.7432 109.93 45.781C109.93 44.9943 110.151 44.2983 110.593 43.6932C111.041 43.088 111.649 42.613 112.417 42.268C113.192 41.9231 114.069 41.7506 115.05 41.7506C116.43 41.7506 117.513 42.0532 118.3 42.6583C119.092 43.2635 119.655 44.0623 119.988 45.0548ZM129.531 41.9321V43.7476H122.305V41.9321H129.531ZM124.411 38.5916H126.553V51.8811C126.553 52.4863 126.641 52.9402 126.817 53.2428C126.998 53.5393 127.228 53.739 127.506 53.8419C127.791 53.9387 128.09 53.9871 128.405 53.9871C128.641 53.9871 128.835 53.975 128.986 53.9508C129.137 53.9205 129.258 53.8963 129.349 53.8782L129.785 55.8026C129.64 55.8571 129.437 55.9116 129.177 55.966C128.917 56.0265 128.587 56.0568 128.187 56.0568C127.582 56.0568 126.989 55.9267 126.408 55.6665C125.833 55.4062 125.355 55.0099 124.974 54.4773C124.599 53.9448 124.411 53.273 124.411 52.4621V38.5916ZM138.449 56.1657C137.106 56.1657 135.947 55.8692 134.973 55.2761C134.005 54.677 133.257 53.8419 132.731 52.7707C132.21 51.6935 131.95 50.4408 131.95 49.0126C131.95 47.5844 132.21 46.3257 132.731 45.2364C133.257 44.141 133.989 43.2877 134.927 42.6765C135.871 42.0592 136.973 41.7506 138.232 41.7506C138.958 41.7506 139.675 41.8716 140.383 42.1137C141.091 42.3558 141.736 42.7491 142.317 43.2938C142.897 43.8324 143.36 44.5465 143.705 45.4361C144.05 46.3257 144.223 47.421 144.223 48.7221V49.6299H133.475V47.7781H142.044C142.044 46.9914 141.887 46.2894 141.572 45.6721C141.264 45.0548 140.822 44.5676 140.247 44.2106C139.678 43.8535 139.006 43.675 138.232 43.675C137.378 43.675 136.64 43.8868 136.017 44.3105C135.399 44.728 134.924 45.2727 134.592 45.9444C134.259 46.6161 134.092 47.3363 134.092 48.1049V49.3394C134.092 50.3924 134.274 51.285 134.637 52.0173C135.006 52.7435 135.517 53.2972 136.171 53.6785C136.825 54.0537 137.584 54.2413 138.449 54.2413C139.012 54.2413 139.521 54.1626 139.975 54.0053C140.434 53.8419 140.831 53.5998 141.164 53.2791C141.497 52.9523 141.754 52.5468 141.935 52.0627L144.005 52.6436C143.787 53.3456 143.421 53.9629 142.907 54.4955C142.392 55.022 141.757 55.4335 141 55.73C140.244 56.0205 139.394 56.1657 138.449 56.1657ZM147.482 55.8752V41.9321H149.551V44.1107H149.733C150.023 43.3664 150.492 42.7885 151.14 42.3769C151.787 41.9594 152.565 41.7506 153.473 41.7506C154.393 41.7506 155.158 41.9594 155.769 42.3769C156.387 42.7885 156.868 43.3664 157.213 44.1107H157.358C157.715 43.3906 158.251 42.8187 158.965 42.3951C159.679 41.9654 160.535 41.7506 161.534 41.7506C162.78 41.7506 163.8 42.1409 164.593 42.9216C165.386 43.6962 165.782 44.9035 165.782 46.5435V55.8752H163.64V46.5435C163.64 45.5147 163.358 44.7795 162.795 44.3377C162.233 43.8959 161.57 43.675 160.807 43.675C159.827 43.675 159.068 43.9716 158.529 44.5646C157.99 45.1516 157.721 45.896 157.721 46.7977V55.8752H155.542V46.3257C155.542 45.5329 155.285 44.8944 154.771 44.4103C154.257 43.9201 153.594 43.675 152.783 43.675C152.226 43.675 151.706 43.8233 151.222 44.1198C150.744 44.4164 150.356 44.8279 150.06 45.3544C149.769 45.8748 149.624 46.477 149.624 47.1608V55.8752H147.482Z" fill="#1D2853"/>
<path d="M31.2143 59.9899H2.06255C1.92109 59.9899 1.77581 59.9899 1.63435 59.9899C1.38967 59.9899 1.25204 59.9147 1.27497 59.6854C1.27497 59.5588 1.27497 59.4288 1.27497 59.3021C1.27497 48.8415 1.30556 38.3809 1.25586 27.9203C1.21514 26.7385 1.49342 25.5653 2.06712 24.5002C2.64082 23.4351 3.49301 22.5096 4.55144 21.802C6.51655 20.3991 8.79517 19.5915 11.2076 19.0406C13.8822 18.4462 16.6416 18.2155 19.393 18.3562C22.6348 18.4498 25.8215 19.132 28.7598 20.3614C29.5354 20.6992 30.274 21.1014 30.9658 21.5625C31.036 21.6192 31.1273 21.6507 31.2219 21.6507C31.3166 21.6507 31.4078 21.6192 31.4781 21.5625C33.9326 19.9748 36.7235 19.1672 39.6712 18.695C41.6775 18.3829 43.7159 18.2682 45.75 18.3528C49.0059 18.4183 52.2121 19.081 55.1703 20.2998C57.0437 21.1005 58.703 22.1579 59.892 23.7217C60.7363 24.8152 61.1823 26.1155 61.1689 27.4447V59.4219C61.1689 60.0002 61.1689 60.0002 60.5304 60.0002L31.2143 59.9899ZM34.5787 40.085C34.5787 44.2665 34.5787 48.4457 34.5787 52.6227C34.5787 52.9957 34.5787 52.9888 34.9419 52.8212C36.3298 52.1957 37.8064 51.7421 39.3309 51.4729C41.844 51.0029 44.4228 50.8806 46.9773 51.1102C49.3857 51.2905 51.7391 51.8524 53.9278 52.7698C54.3981 52.9751 54.3981 52.9786 54.3981 52.4961C54.3981 44.2083 54.3981 35.9206 54.3981 27.6329C54.4036 27.4706 54.3692 27.3092 54.2972 27.1601C54.2251 27.0111 54.1173 26.8781 53.9813 26.7706C53.3731 26.2733 52.6717 25.8759 51.9092 25.5969C50.1862 24.953 48.3579 24.5636 46.4955 24.4437C43.8155 24.2077 41.1096 24.433 38.5242 25.1075C37.2993 25.4022 36.1536 25.9155 35.156 26.6166C34.9587 26.7488 34.8 26.9219 34.6935 27.1209C34.5869 27.3199 34.5358 27.5389 34.5443 27.7595C34.594 31.8691 34.594 35.9788 34.594 40.085H34.5787ZM27.8231 40.0337C27.8231 35.9275 27.8231 31.8212 27.8231 27.715C27.8327 27.507 27.7859 27.3 27.6867 27.1117C27.5875 26.9234 27.4389 26.7594 27.2535 26.6337C26.7503 26.2626 26.1951 25.952 25.6019 25.7098C23.8119 24.9953 21.8952 24.569 19.9397 24.4505C17.2612 24.2133 14.5566 24.4375 11.9722 25.111C10.7468 25.4061 9.60097 25.9207 8.60401 26.6234C8.40396 26.7605 8.24483 26.9397 8.14078 27.145C8.03673 27.3504 7.99098 27.5756 8.00759 27.8005C8.02289 35.9948 8.02289 44.189 8.00759 52.3832C8.00759 52.4653 8.00759 52.5474 8.00759 52.6295C8.00759 52.8896 8.07641 52.9717 8.36697 52.8314C9.09119 52.4838 9.85183 52.2007 10.6379 51.9862C14.615 50.8752 18.8432 50.6914 22.9218 51.4524C24.5012 51.7118 26.0308 52.1727 27.4638 52.8212C27.7276 52.9443 27.8155 52.8896 27.804 52.6364C27.804 52.5337 27.804 52.4276 27.804 52.3216L27.8231 40.0337Z" fill="#F13A51"/>
<path d="M31.2145 0.227051C31.3712 0.2818 31.528 0.333125 31.6809 0.394718L41.69 4.37434L61.7808 12.3644C62.6525 12.7066 62.5454 12.5765 62.1975 13.2917C61.4711 14.7905 60.7103 16.2756 59.9839 17.7743C59.831 18.0857 59.678 18.1336 59.3378 17.9967C54.3141 15.987 49.2866 13.9852 44.2553 11.9914C40.0269 10.3078 35.7984 8.62428 31.57 6.94073C31.4605 6.89269 31.3402 6.86772 31.2183 6.86772C31.0963 6.86772 30.976 6.89269 30.8665 6.94073L13.8878 13.6989C10.2558 15.1429 6.62249 16.5881 2.98792 18.0344C2.74323 18.1302 2.6056 18.1063 2.50237 17.877C1.69441 16.2345 0.878796 14.5931 0.0555379 12.9529C-0.070627 12.6997 0.0249495 12.6107 0.273456 12.5047C3.30141 11.307 6.3281 10.106 9.35351 8.90146L25.1585 2.62235L30.9124 0.329702C31.0042 0.292062 31.1036 0.264691 31.2145 0.227051Z" fill="#F13A51"/>
</svg>
