<svg width="29" height="29" viewBox="0 0 29 29" fill="none" xmlns="http://www.w3.org/2000/svg">
<path d="M14.4302 0.599121C6.85561 0.599121 0.71521 6.73952 0.71521 14.3141C0.71521 21.8886 6.85561 28.029 14.4302 28.029C22.0047 28.029 28.1451 21.8886 28.1451 14.3141C28.1363 6.74317 22.0011 0.607938 14.4302 0.599121Z" fill="#5243C2" fill-opacity="0.15"/>
<path d="M22.3463 9.97106L14.5231 20.5876C14.3365 20.8351 14.0583 20.9973 13.7509 21.0377C13.4436 21.0781 13.1329 20.9934 12.8887 20.8024L7.30214 16.3359C6.80916 15.9414 6.72934 15.222 7.12384 14.729C7.51835 14.236 8.2378 14.1562 8.73078 14.5507L13.3893 18.2778L20.5062 8.61899C20.7396 8.26879 21.1465 8.07517 21.5655 8.11501C21.9844 8.15485 22.3476 8.42169 22.5108 8.8096C22.674 9.19751 22.6108 9.64371 22.3463 9.97106Z" fill="#BB6BD9"/>
</svg>
