<svg width="28" height="28" viewBox="0 0 28 28" fill="none" xmlns="http://www.w3.org/2000/svg">
<path opacity="0.1" d="M14.2137 0.488281C6.63911 0.488281 0.498718 6.62868 0.498718 14.2032C0.498718 21.7778 6.63911 27.9182 14.2137 27.9182C21.7882 27.9182 27.9286 21.7778 27.9286 14.2032C27.9198 6.63233 21.7846 0.497099 14.2137 0.488281Z" fill="white"/>
<path d="M22.1299 9.86022L14.3066 20.4767C14.1201 20.7243 13.8418 20.8865 13.5345 20.9269C13.2272 20.9673 12.9165 20.8825 12.6723 20.6916L7.08571 16.2251C6.59273 15.8306 6.5129 15.1111 6.90741 14.6182C7.30192 14.1252 8.02137 14.0454 8.51435 14.4399L13.1729 18.1669L20.2898 8.50815C20.5232 8.15795 20.9301 7.96433 21.3491 8.00417C21.768 8.04401 22.1312 8.31085 22.2943 8.69876C22.4575 9.08667 22.3944 9.53287 22.1299 9.86022Z" fill="white"/>
</svg>
