<svg width="168" height="27" viewBox="0 0 168 27" fill="none" xmlns="http://www.w3.org/2000/svg">
<g clip-path="url(#clip0_823_157)">
<path d="M1.64116 13.872L5.49783 16.6887L4.03316 21.2246C3.79647 21.9281 3.79347 22.6892 4.02461 23.3946C4.25576 24.0999 4.70867 24.7117 5.31583 25.1387C5.91258 25.5793 6.63575 25.8154 7.37758 25.8117C8.1194 25.808 8.84017 25.5647 9.4325 25.1181L13.2036 22.3426L16.9757 25.1148C17.5714 25.553 18.2907 25.791 19.0301 25.7946C19.7696 25.7982 20.4912 25.5672 21.0911 25.1349C21.691 24.7025 22.1384 24.0911 22.3689 23.3885C22.5994 22.6859 22.6012 21.9283 22.374 21.2246L20.9093 16.6887L24.766 13.872C25.3609 13.437 25.8031 12.8252 26.0295 12.1239C26.2559 11.4226 26.2549 10.6677 26.0266 9.96699C25.7984 9.26629 25.3545 8.65565 24.7584 8.2223C24.1624 7.78894 23.4446 7.55503 22.7077 7.55398H17.9702L16.5327 3.07332C16.3066 2.36802 15.8624 1.75275 15.264 1.31622C14.6657 0.879694 13.9442 0.64447 13.2036 0.64447C12.4629 0.64447 11.7414 0.879694 11.1431 1.31622C10.5448 1.75275 10.1006 2.36802 9.87449 3.07332L8.43691 7.55398H3.70383C2.96688 7.55503 2.24912 7.78894 1.65306 8.2223C1.05699 8.65565 0.613122 9.26629 0.384843 9.96699C0.156564 10.6677 0.155553 11.4226 0.381956 12.1239C0.608359 12.8252 1.05059 13.437 1.64549 13.872H1.64116Z" fill="#FFCE20"/>
</g>
<g clip-path="url(#clip1_823_157)">
<path d="M36.8912 13.872L40.7478 16.6887L39.2832 21.2246C39.0465 21.9281 39.0435 22.6892 39.2746 23.3946C39.5058 24.0999 39.9587 24.7117 40.5658 25.1387C41.1626 25.5793 41.8858 25.8154 42.6276 25.8117C43.3694 25.808 44.0902 25.5647 44.6825 25.1181L48.4536 22.3426L52.2257 25.1148C52.8214 25.553 53.5407 25.791 54.2801 25.7946C55.0196 25.7982 55.7412 25.5672 56.3411 25.1349C56.941 24.7025 57.3884 24.0911 57.6189 23.3885C57.8494 22.6859 57.8512 21.9283 57.624 21.2246L56.1593 16.6887L60.016 13.872C60.6109 13.437 61.0531 12.8252 61.2795 12.1239C61.5059 11.4226 61.5049 10.6677 61.2766 9.96699C61.0484 9.26629 60.6045 8.65565 60.0084 8.2223C59.4124 7.78894 58.6946 7.55503 57.9577 7.55398H53.2202L51.7827 3.07332C51.5566 2.36802 51.1124 1.75275 50.514 1.31622C49.9157 0.879694 49.1942 0.64447 48.4536 0.64447C47.7129 0.64447 46.9914 0.879694 46.3931 1.31622C45.7948 1.75275 45.3506 2.36802 45.1245 3.07332L43.6869 7.55398H38.9538C38.2169 7.55503 37.4991 7.78894 36.9031 8.2223C36.307 8.65565 35.8631 9.26629 35.6348 9.96699C35.4066 10.6677 35.4056 11.4226 35.632 12.1239C35.8584 12.8252 36.3006 13.437 36.8955 13.872H36.8912Z" fill="#FFCE20"/>
</g>
<g clip-path="url(#clip2_823_157)">
<path d="M72.1412 13.872L75.9978 16.6887L74.5332 21.2246C74.2965 21.9281 74.2935 22.6892 74.5246 23.3946C74.7558 24.0999 75.2087 24.7117 75.8158 25.1387C76.4126 25.5793 77.1358 25.8154 77.8776 25.8117C78.6194 25.808 79.3402 25.5647 79.9325 25.1181L83.7036 22.3426L87.4757 25.1148C88.0714 25.553 88.7907 25.791 89.5301 25.7946C90.2696 25.7982 90.9912 25.5672 91.5911 25.1349C92.191 24.7025 92.6384 24.0911 92.8689 23.3885C93.0994 22.6859 93.1012 21.9283 92.874 21.2246L91.4093 16.6887L95.266 13.872C95.8609 13.437 96.3031 12.8252 96.5295 12.1239C96.7559 11.4226 96.7549 10.6677 96.5266 9.96699C96.2984 9.26629 95.8545 8.65565 95.2584 8.2223C94.6624 7.78894 93.9446 7.55503 93.2077 7.55398H88.4702L87.0327 3.07332C86.8066 2.36802 86.3624 1.75275 85.764 1.31622C85.1657 0.879694 84.4442 0.64447 83.7036 0.64447C82.9629 0.64447 82.2414 0.879694 81.6431 1.31622C81.0448 1.75275 80.6006 2.36802 80.3745 3.07332L78.9369 7.55398H74.2038C73.4669 7.55503 72.7491 7.78894 72.1531 8.2223C71.557 8.65565 71.1131 9.26629 70.8848 9.96699C70.6566 10.6677 70.6556 11.4226 70.882 12.1239C71.1084 12.8252 71.5506 13.437 72.1455 13.872H72.1412Z" fill="#FFCE20"/>
</g>
<g clip-path="url(#clip3_823_157)">
<path d="M107.391 13.872L111.248 16.6887L109.783 21.2246C109.546 21.9281 109.543 22.6892 109.775 23.3946C110.006 24.0999 110.459 24.7117 111.066 25.1387C111.663 25.5793 112.386 25.8154 113.128 25.8117C113.869 25.808 114.59 25.5647 115.182 25.1181L118.954 22.3426L122.726 25.1148C123.321 25.553 124.041 25.791 124.78 25.7946C125.52 25.7982 126.241 25.5672 126.841 25.1349C127.441 24.7025 127.888 24.0911 128.119 23.3885C128.349 22.6859 128.351 21.9283 128.124 21.2246L126.659 16.6887L130.516 13.872C131.111 13.437 131.553 12.8252 131.78 12.1239C132.006 11.4226 132.005 10.6677 131.777 9.96699C131.548 9.26629 131.104 8.65565 130.508 8.2223C129.912 7.78894 129.195 7.55503 128.458 7.55398H123.72L122.283 3.07332C122.057 2.36802 121.612 1.75275 121.014 1.31622C120.416 0.879694 119.694 0.64447 118.954 0.64447C118.213 0.64447 117.491 0.879694 116.893 1.31622C116.295 1.75275 115.851 2.36802 115.624 3.07332L114.187 7.55398H109.454C108.717 7.55503 107.999 7.78894 107.403 8.2223C106.807 8.65565 106.363 9.26629 106.135 9.96699C105.907 10.6677 105.906 11.4226 106.132 12.1239C106.358 12.8252 106.801 13.437 107.395 13.872H107.391Z" fill="#FFCE20"/>
</g>
<g clip-path="url(#clip4_823_157)">
<path d="M142.641 13.872L146.498 16.6887L145.033 21.2246C144.796 21.9281 144.793 22.6892 145.025 23.3946C145.256 24.0999 145.709 24.7117 146.316 25.1387C146.913 25.5793 147.636 25.8154 148.378 25.8117C149.119 25.808 149.84 25.5647 150.432 25.1181L154.204 22.3426L157.976 25.1148C158.571 25.553 159.291 25.791 160.03 25.7946C160.77 25.7982 161.491 25.5672 162.091 25.1349C162.691 24.7025 163.138 24.0911 163.369 23.3885C163.599 22.6859 163.601 21.9283 163.374 21.2246L161.909 16.6887L165.766 13.872C166.361 13.437 166.803 12.8252 167.03 12.1239C167.256 11.4226 167.255 10.6677 167.027 9.96699C166.798 9.26629 166.354 8.65565 165.758 8.2223C165.162 7.78894 164.445 7.55503 163.708 7.55398H158.97L157.533 3.07332C157.307 2.36802 156.862 1.75275 156.264 1.31622C155.666 0.879694 154.944 0.64447 154.204 0.64447C153.463 0.64447 152.741 0.879694 152.143 1.31622C151.545 1.75275 151.101 2.36802 150.874 3.07332L149.437 7.55398H144.704C143.967 7.55503 143.249 7.78894 142.653 8.2223C142.057 8.65565 141.613 9.26629 141.385 9.96699C141.157 10.6677 141.156 11.4226 141.382 12.1239C141.608 12.8252 142.051 13.437 142.645 13.872H142.641Z" fill="#FFCE20"/>
</g>
<defs>
<clipPath id="clip0_823_157">
<rect width="26" height="26" fill="white" transform="translate(0.203125 0.43866)"/>
</clipPath>
<clipPath id="clip1_823_157">
<rect width="26" height="26" fill="white" transform="translate(35.4531 0.43866)"/>
</clipPath>
<clipPath id="clip2_823_157">
<rect width="26" height="26" fill="white" transform="translate(70.7031 0.43866)"/>
</clipPath>
<clipPath id="clip3_823_157">
<rect width="26" height="26" fill="white" transform="translate(105.953 0.43866)"/>
</clipPath>
<clipPath id="clip4_823_157">
<rect width="26" height="26" fill="white" transform="translate(141.203 0.43866)"/>
</clipPath>
</defs>
</svg>
