<svg width="235" height="134" viewBox="0 0 235 134" fill="none" xmlns="http://www.w3.org/2000/svg">
<mask id="mask0_752_1398" style="mask-type:alpha" maskUnits="userSpaceOnUse" x="0" y="10" width="207" height="114">
<rect x="0.897461" y="10.0948" width="205.614" height="112.928" rx="18.1111" fill="#5F60ED"/>
</mask>
<g mask="url(#mask0_752_1398)">
<path d="M117.485 43.6518C117.221 42.554 118.408 41.6661 119.404 42.1978C123.454 44.3602 127.367 45.9522 131.531 46.9136C141.433 49.2053 150.785 47.4398 159.768 43.0226C169.638 38.1665 177.913 31.0681 186.352 24.1933C193.749 18.1683 201.023 11.9561 209.337 7.17356C217.437 2.5163 225.977 -0.51671 235.541 0.21367C236.895 0.317737 237.462 0.72128 237.781 2.04734C243.43 25.7514 249.131 49.4386 254.819 73.1332C255.067 74.167 255.538 75.2627 253.644 75.0992C243.098 74.1986 233.852 77.904 225.132 83.3192C215.785 89.1247 207.614 96.4797 199.062 103.326C191.49 109.393 183.842 115.298 174.809 119.183C162.432 124.507 150.452 123.628 138.52 117.741C135.689 116.345 134.401 114.499 133.695 111.481C128.395 88.8465 122.911 66.2559 117.485 43.6518ZM212.902 48.3096C211.683 42.9645 209.415 38.2221 204.497 35.3613C198.146 31.659 191.824 32.9186 186.1 36.6547C175.251 43.7344 167.612 53.499 163.63 65.8917C161.227 73.3703 161.289 80.8709 164.623 88.1671C169.839 99.5927 182.232 104.654 193.43 96.1435C201.771 89.8041 207.24 81.3543 210.753 71.6022C213.473 64.0428 214.705 56.3008 212.902 48.3096Z" fill="url(#paint0_linear_752_1398)" fill-opacity="0.62"/>
<path d="M141.574 54.6052C141.311 53.5074 142.498 52.6195 143.494 53.1512C147.544 55.3135 151.456 56.9056 155.621 57.867C165.523 60.1586 174.875 58.3932 183.858 53.976C193.728 49.1198 202.002 42.0215 210.442 35.1467C217.839 29.1217 225.113 22.9095 233.427 18.1269C241.527 13.4697 250.067 10.4367 259.631 11.167C260.985 11.2711 261.552 11.6746 261.87 13.0007C267.52 36.7048 273.22 60.3919 278.909 84.0866C279.157 85.1204 279.628 86.2161 277.734 86.0526C267.188 85.152 257.942 88.8573 249.222 94.2726C239.875 100.078 231.704 107.433 223.152 114.28C215.579 120.347 207.932 126.252 198.899 130.136C186.522 135.461 174.542 134.582 162.61 128.694C159.778 127.298 158.491 125.453 157.785 122.434C152.485 99.7998 147.001 77.2093 141.574 54.6052ZM236.992 59.2629C235.773 53.9178 233.504 49.1755 228.587 46.3147C222.236 42.6124 215.913 43.8719 210.19 47.6081C199.341 54.6878 191.702 64.4523 187.72 76.8451C185.317 84.3237 185.379 91.8243 188.713 99.1205C193.928 110.546 206.322 115.607 217.519 107.097C225.861 100.758 231.329 92.3077 234.843 82.5556C237.563 74.9962 238.795 67.2542 236.992 59.2629Z" fill="url(#paint1_linear_752_1398)"/>
</g>
<defs>
<linearGradient id="paint0_linear_752_1398" x1="185.858" y1="41.8589" x2="117.399" y2="48.9786" gradientUnits="userSpaceOnUse">
<stop offset="0.0563735" stop-color="#8587EA"/>
<stop offset="1" stop-color="#7678EA"/>
</linearGradient>
<linearGradient id="paint1_linear_752_1398" x1="138.751" y1="67.5994" x2="225.283" y2="75.8145" gradientUnits="userSpaceOnUse">
<stop stop-color="#ABAFFF"/>
<stop offset="1" stop-color="#7273EC"/>
</linearGradient>
</defs>
</svg>
