<svg width="235" height="133" viewBox="0 0 235 133" fill="none" xmlns="http://www.w3.org/2000/svg">
<mask id="mask0_752_1425" style="mask-type:alpha" maskUnits="userSpaceOnUse" x="0" y="0" width="207" height="114">
<rect x="0.726562" y="0.0948486" width="205.614" height="112.928" rx="18.1111" fill="#5F60ED"/>
</mask>
<g mask="url(#mask0_752_1425)">
<path d="M159.878 119.723C149.865 123.687 139.85 127.652 129.837 131.615C127.639 132.486 126.684 132.043 125.718 129.808C122.76 122.954 120.595 115.862 119.817 108.38C119.3 103.411 119.453 98.4854 121.414 93.7957C122.485 91.2323 124.114 89.1092 126.328 87.4906C127.641 86.5324 128.512 86.5289 129.831 87.5139C134.14 90.7262 138.926 92.286 144.24 91.7845C151.803 91.071 156.627 86.4904 159.829 79.7383C160.529 78.2598 160.918 76.665 161.283 75.0653C161.668 73.379 162.274 72.7939 163.96 72.6121C168.29 72.1445 172.051 73.6202 175.449 76.2815C179.646 79.5693 182.702 83.8421 185.31 88.4887C188.117 93.4884 190.316 98.7661 191.985 104.278C192.476 105.899 191.87 107.055 190.177 107.725C180.08 111.728 169.979 115.725 159.878 119.723Z" fill="url(#paint0_linear_752_1425)"/>
<path d="M155.347 58.5816C157.383 64.7612 157.019 71.4256 152.433 77.3631C147.582 83.6433 139.15 85.1931 132.335 81.29C123.642 76.3112 119.742 65.8086 122.994 56.1364C126.474 45.7865 138.269 41.7892 147.284 47.8999C150.852 50.3199 153.332 53.4812 155.347 58.5816Z" fill="url(#paint1_linear_752_1425)"/>
<path d="M202.2 111.577C187.403 117.435 172.602 123.272 157.824 129.182C156.5 129.71 155.999 129.516 155.529 128.126C154.327 124.573 153.045 121.048 151.636 117.578C149.983 113.512 150.252 109.558 151.888 105.604C154.01 100.467 157.447 96.3214 161.339 92.5701C169.236 84.9617 178.121 78.7652 188.232 74.8573C201.212 69.8395 214.68 67.8526 228.525 70.1379C232.5 70.7941 236.254 72.1462 239.451 74.8295C241.267 76.3516 242.563 78.2383 243.4 80.4767C244.796 84.206 246.138 87.96 247.615 91.6531C248.147 92.9843 247.962 93.5189 246.606 94.0517C231.789 99.8567 217.003 105.733 202.205 111.591C202.204 111.587 202.203 111.584 202.2 111.577Z" fill="url(#paint2_linear_752_1425)"/>
<path d="M157.144 52.0465C152.794 39.3966 155.636 29.3605 163.592 20.55C164.557 19.4802 165.704 18.584 166.712 17.5502C167.331 16.9118 167.823 17.0008 168.477 17.4977C170.495 19.0305 172.559 20.4998 174.589 22.0164C175.158 22.4413 175.646 22.679 176.445 22.5025C185.422 20.513 195.235 25.245 198.39 37.0187C200.749 45.8194 198.594 53.6941 192.123 59.8383C182.418 69.0579 167.956 67.3305 160.162 57.1627C158.758 55.3301 157.5 53.3378 157.144 52.0465Z" fill="url(#paint3_linear_752_1425)"/>
</g>
<defs>
<linearGradient id="paint0_linear_752_1425" x1="145.045" y1="79.8952" x2="160.685" y2="119.404" gradientUnits="userSpaceOnUse">
<stop stop-color="#797CE9"/>
<stop offset="1" stop-color="#6D6CEE"/>
</linearGradient>
<linearGradient id="paint1_linear_752_1425" x1="132.402" y1="46.0863" x2="146.635" y2="82.0406" gradientUnits="userSpaceOnUse">
<stop stop-color="#797CE9"/>
<stop offset="1" stop-color="#6D6CEE"/>
</linearGradient>
<linearGradient id="paint2_linear_752_1425" x1="206.222" y1="71.5352" x2="207.215" y2="126.424" gradientUnits="userSpaceOnUse">
<stop stop-color="#ACB0FF"/>
<stop offset="1" stop-color="#7070EC"/>
</linearGradient>
<linearGradient id="paint3_linear_752_1425" x1="176.499" y1="18.3778" x2="153.896" y2="64.5368" gradientUnits="userSpaceOnUse">
<stop stop-color="#ACB0FF"/>
<stop offset="1" stop-color="#7070EC"/>
</linearGradient>
</defs>
</svg>
