<svg width="232" height="137" viewBox="0 0 232 137" fill="none" xmlns="http://www.w3.org/2000/svg">
<mask id="mask0_752_1409" style="mask-type:alpha" maskUnits="userSpaceOnUse" x="0" y="0" width="206" height="113">
<rect x="0.0761719" width="205.614" height="112.928" rx="18.1111" fill="#5F60ED"/>
</mask>
<g mask="url(#mask0_752_1409)">
<rect x="106.018" y="53.6213" width="81.7379" height="71.283" rx="9.5044" transform="rotate(-22 106.018 53.6213)" fill="url(#paint0_linear_752_1409)"/>
<path d="M138.667 80.9052C136.896 77.5749 135.118 74.2503 133.365 70.9104C133.12 70.444 132.914 70.3161 132.441 70.6157C131.902 70.9568 131.325 71.2431 130.749 71.5201C129.557 72.093 128.392 72.0289 127.322 71.2391C126.234 70.4349 125.773 69.3224 126.032 67.9949C126.833 63.8921 127.651 59.7926 128.502 55.699C128.926 53.6624 131.028 52.5525 132.954 53.3412C136.802 54.9162 140.636 56.5246 144.468 58.1362C145.744 58.6724 146.434 59.6743 146.492 61.054C146.55 62.4134 145.917 63.4177 144.742 64.0828C144.285 64.3416 143.813 64.5755 143.351 64.827C142.437 65.3272 142.472 65.1503 142.951 66.0555C144.579 69.125 146.212 72.1912 147.843 75.2587C149.646 78.6495 151.402 82.0655 153.271 85.4197C154.252 87.18 153.661 89.338 151.806 90.2343C150.675 90.7811 149.568 91.3807 148.476 92.002C146.721 93.0001 144.629 92.2438 143.765 90.5407C142.124 87.2998 140.375 84.1137 138.667 80.9052Z" fill="#6B6ADE"/>
<path d="M170.432 67.76C168.661 64.4298 166.882 61.1052 165.13 57.7652C164.885 57.2989 164.679 57.1709 164.206 57.4705C163.666 57.8117 163.09 58.0979 162.513 58.375C161.322 58.9479 160.157 58.8838 159.086 58.0939C157.998 57.2898 157.537 56.1773 157.796 54.8498C158.597 50.747 159.416 46.6475 160.267 42.5539C160.69 40.5172 162.792 39.4074 164.718 40.196C168.566 41.771 172.401 43.3795 176.233 44.9911C177.509 45.5273 178.198 46.5291 178.256 47.9088C178.314 49.2683 177.682 50.2726 176.507 50.9377C176.049 51.1964 175.577 51.4304 175.116 51.6818C174.201 52.1821 174.236 52.0051 174.716 52.9104C176.343 55.9798 177.977 59.0461 179.608 62.1136C181.411 65.5044 183.167 68.9204 185.035 72.2746C186.016 74.0349 185.426 76.1929 183.571 77.0892C182.44 77.636 181.333 78.2356 180.24 78.8569C178.486 79.8549 176.394 79.0986 175.53 77.3955C173.889 74.1546 172.139 70.9686 170.432 67.76Z" fill="#6B6ADE"/>
<rect x="131.681" y="61.3141" width="89.2418" height="77.8271" rx="10.3769" transform="rotate(-10 131.681 61.3141)" fill="url(#paint1_linear_752_1409)"/>
<path d="M159.856 97.6932C159.136 93.9907 158.407 90.2914 157.708 86.5849C157.61 86.0674 157.45 85.8847 156.91 86.033C156.295 86.2015 155.66 86.3067 155.028 86.4031C153.721 86.6026 152.626 86.2008 151.833 85.1323C151.027 84.0453 150.912 82.8466 151.547 81.6528C153.513 77.9635 155.494 74.2823 157.505 70.6164C158.505 68.7927 160.84 68.3458 162.451 69.6632C165.671 72.2944 168.868 74.9537 172.061 77.6151C173.124 78.501 173.491 79.6607 173.143 80.9971C172.801 82.3141 171.902 83.0895 170.584 83.3821C170.071 83.4958 169.551 83.5814 169.037 83.6871C168.016 83.8981 168.101 83.739 168.295 84.745C168.954 88.1561 169.619 91.5659 170.282 94.9763C171.015 98.7461 171.695 102.526 172.502 106.28C172.925 108.25 171.729 110.141 169.693 110.456C168.452 110.648 167.218 110.898 165.992 111.173C164.022 111.614 162.242 110.279 161.915 108.398C161.293 104.819 160.551 101.261 159.856 97.6932Z" fill="#6B6ADE"/>
<path d="M189.43 94.4069C188.711 90.7044 187.982 87.0051 187.282 83.2987C187.184 82.7812 187.025 82.5985 186.485 82.7467C185.869 82.9153 185.234 83.0205 184.602 83.1169C183.295 83.3164 182.2 82.9145 181.407 81.8461C180.602 80.7591 180.486 79.5604 181.122 78.3665C183.087 74.6772 185.068 70.996 187.079 67.3301C188.08 65.5064 190.414 65.0596 192.026 66.3769C195.245 69.0081 198.442 71.6674 201.635 74.3289C202.698 75.2148 203.065 76.3745 202.717 77.7108C202.375 79.0278 201.476 79.8033 200.158 80.0958C199.645 80.2095 199.125 80.2952 198.611 80.4008C197.59 80.6118 197.675 80.4528 197.869 81.4588C198.528 84.8699 199.194 88.2797 199.856 91.69C200.589 95.4598 201.269 99.2399 202.076 102.994C202.5 104.964 201.304 106.855 199.268 107.17C198.026 107.362 196.792 107.612 195.566 107.887C193.596 108.328 191.817 106.993 191.489 105.112C190.867 101.533 190.125 97.9745 189.43 94.4069Z" fill="#6B6ADE"/>
</g>
<defs>
<linearGradient id="paint0_linear_752_1409" x1="112.059" y1="59.37" x2="185.716" y2="113.733" gradientUnits="userSpaceOnUse">
<stop stop-color="#6E70E6"/>
<stop offset="1" stop-color="#9B9FE9"/>
</linearGradient>
<linearGradient id="paint1_linear_752_1409" x1="138.277" y1="67.5905" x2="218.696" y2="126.944" gradientUnits="userSpaceOnUse">
<stop stop-color="#A9ABF9"/>
<stop offset="1" stop-color="#7273EC"/>
</linearGradient>
</defs>
</svg>
