<svg width="27" height="27" viewBox="0 0 27 27" fill="none" xmlns="http://www.w3.org/2000/svg">
<path d="M2.73997 20.3682L2.85863 20.0817L2.6937 19.8191C1.49816 17.9157 0.798217 15.6722 0.798217 13.2615C0.798217 6.43123 6.33603 0.894835 13.1665 0.894835C19.996 0.894835 25.5348 6.43126 25.5348 13.2615C25.5348 20.092 19.9958 25.632 13.1665 25.632C10.7562 25.632 8.51489 24.9304 6.61132 23.7355L6.34871 23.5707L6.06227 23.6894L1.46353 25.595C1.4635 25.5951 1.46346 25.5951 1.46343 25.5951C1.34862 25.6424 1.21851 25.6461 1.09524 25.5956C0.849051 25.4923 0.734222 25.2114 0.834871 24.9679C0.834898 24.9678 0.834924 24.9677 0.834951 24.9677L2.73997 20.3682ZM7.12082 22.9228L7.12093 22.9228C8.94204 24.0645 11.033 24.6713 13.1665 24.6713C19.457 24.6713 24.574 19.5517 24.574 13.2615C24.574 6.97136 19.4568 1.85526 13.1665 1.85526C6.87619 1.85526 1.75897 6.97169 1.75897 13.2615C1.75897 15.3951 2.36287 17.4861 3.50779 19.3076L3.93587 19.9904L2.72056 22.9253L2.166 24.2645L3.50511 23.7096L6.43795 22.4944L7.12082 22.9228Z" fill="#4EAA97" stroke="#ED5F5F" strokeWidth="1.2008"/>
<path d="M17.3297 17.4217L17.3286 17.4227C16.7213 18.0314 15.7318 18.0326 15.1202 17.4219L15.1194 17.4212L15.1161 17.4178L15.103 17.4047L15.0519 17.3536L14.8579 17.1596L14.1656 16.4672L12.0648 14.3659L10.0339 12.3344H10.0346L9.00968 11.3095C8.39989 10.6997 8.39989 9.71195 9.00968 9.10216L9.00972 9.10212L9.99339 8.11825L11.6487 10.8768L10.8341 11.6914L10.4096 12.1158L10.834 12.5404L13.8894 15.5971L14.314 16.0218L14.7386 15.5972L15.5532 14.7826L18.3145 16.4394L17.3297 17.4217ZM9.01295 11.3128C9.01289 11.3127 9.0129 11.3127 9.01297 11.3128L9.01295 11.3128ZM8.31188 11.4006C7.75364 10.5611 7.84473 9.41801 8.58513 8.67761L9.67494 7.58757L8.31188 11.4006Z" fill="#ED5F5F" stroke="#ED5F5F" strokeWidth="1.2008"/>
</svg>
