<svg width="284" height="96" viewBox="0 0 284 96" fill="none" xmlns="http://www.w3.org/2000/svg">
<path d="M143.565 20.2609H149.992V48.0303H143.565V36.6448H130.95V48.0303H124.523V20.2609H130.95V31.21H143.565V20.2609ZM166.281 48.3476C159.497 48.3476 154.539 43.7855 154.539 37.3589C154.539 30.9323 159.497 26.3701 166.281 26.3701C173.065 26.3701 177.984 30.9323 177.984 37.3589C177.984 43.7855 173.065 48.3476 166.281 48.3476ZM166.281 43.2698C169.375 43.2698 171.716 41.0483 171.716 37.3589C171.716 33.6695 169.375 31.448 166.281 31.448C163.187 31.448 160.807 33.6695 160.807 37.3589C160.807 41.0483 163.187 43.2698 166.281 43.2698ZM188.031 29.5041C189.539 27.4412 192.078 26.3701 195.37 26.3701V32.0827C194.855 32.043 194.458 32.0034 193.982 32.0034C190.57 32.0034 188.309 33.8679 188.309 37.9539V48.0303H182.12V26.6875H188.031V29.5041ZM202.144 23.7122C199.844 23.7122 198.296 22.2047 198.296 20.2609C198.296 18.317 199.844 16.8095 202.144 16.8095C204.445 16.8095 205.993 18.2377 205.993 20.1419C205.993 22.2047 204.445 23.7122 202.144 23.7122ZM199.05 48.0303V26.6875H205.239V48.0303H199.05ZM217.33 43.2698H228.556V48.0303H209.515V44.3012L220.384 31.448H209.792V26.6875H228.199V30.4165L217.33 43.2698ZM242.407 48.3476C235.623 48.3476 230.664 43.7855 230.664 37.3589C230.664 30.9323 235.623 26.3701 242.407 26.3701C249.19 26.3701 254.11 30.9323 254.11 37.3589C254.11 43.7855 249.19 48.3476 242.407 48.3476ZM242.407 43.2698C245.501 43.2698 247.842 41.0483 247.842 37.3589C247.842 33.6695 245.501 31.448 242.407 31.448C239.312 31.448 236.932 33.6695 236.932 37.3589C236.932 41.0483 239.312 43.2698 242.407 43.2698ZM271.218 26.3701C276.257 26.3701 280.065 29.3058 280.065 35.8117V48.0303H273.876V36.7638C273.876 33.3125 272.289 31.7257 269.552 31.7257C266.577 31.7257 264.435 33.5505 264.435 37.4779V48.0303H258.246V26.6875H264.157V29.1868C265.823 27.3619 268.322 26.3701 271.218 26.3701ZM140.502 65.3918C140.333 63.9642 139.648 62.856 138.445 62.0671C137.243 61.2782 135.769 60.8838 134.022 60.8838C132.745 60.8838 131.627 61.0904 130.669 61.5036C129.721 61.9168 128.979 62.485 128.443 63.2082C127.917 63.9314 127.654 64.7531 127.654 65.6735C127.654 66.4437 127.838 67.1058 128.204 67.6599C128.579 68.2046 129.058 68.6601 129.641 69.0264C130.223 69.3833 130.833 69.6791 131.472 69.9139C132.111 70.1393 132.698 70.3224 133.233 70.4633L136.163 71.2522C136.915 71.4494 137.75 71.7218 138.671 72.0693C139.601 72.4168 140.488 72.8911 141.333 73.4921C142.188 74.0838 142.892 74.8445 143.447 75.7743C144.001 76.7041 144.278 77.8452 144.278 79.1976C144.278 80.7566 143.869 82.1654 143.052 83.4239C142.244 84.6823 141.061 85.6826 139.502 86.4245C137.952 87.1665 136.069 87.5374 133.853 87.5374C131.787 87.5374 129.998 87.204 128.486 86.5372C126.983 85.8704 125.8 84.9406 124.935 83.7479C124.081 82.5551 123.597 81.1698 123.484 79.592H127.091C127.185 80.6815 127.551 81.5831 128.19 82.2969C128.838 83.0012 129.655 83.5272 130.641 83.8747C131.636 84.2128 132.707 84.3818 133.853 84.3818C135.187 84.3818 136.384 84.1658 137.445 83.7338C138.507 83.2924 139.347 82.6819 139.967 81.9024C140.587 81.1135 140.897 80.1931 140.897 79.1412C140.897 78.1833 140.629 77.4038 140.094 76.8027C139.558 76.2016 138.854 75.7133 137.981 75.3376C137.107 74.9619 136.163 74.6332 135.149 74.3515L131.599 73.3372C129.345 72.6891 127.56 71.7641 126.246 70.5619C124.931 69.3598 124.273 67.7867 124.273 65.8426C124.273 64.2272 124.71 62.8185 125.584 61.6163C126.466 60.4048 127.65 59.4656 129.134 58.7988C130.627 58.1226 132.294 57.7845 134.135 57.7845C135.994 57.7845 137.647 58.1179 139.093 58.7847C140.54 59.4421 141.686 60.3437 142.531 61.4895C143.386 62.6353 143.836 63.9361 143.883 65.3918H140.502ZM151.712 95.1447C151.149 95.1447 150.646 95.0978 150.205 95.0038C149.764 94.9193 149.458 94.8348 149.289 94.7503L150.135 91.82C150.942 92.0267 151.656 92.1018 152.276 92.0454C152.896 91.9891 153.445 91.712 153.924 91.2143C154.413 90.7259 154.859 89.9323 155.262 88.8335L155.882 87.143L147.881 65.3918H151.487L157.46 82.635H157.686L163.659 65.3918H167.265L158.08 90.1859C157.667 91.3035 157.155 92.2286 156.544 92.9611C155.934 93.7031 155.225 94.2525 154.417 94.6094C153.619 94.9663 152.717 95.1447 151.712 95.1447ZM186.981 70.2379L183.994 71.0832C183.806 70.5854 183.529 70.1017 183.163 69.6321C182.806 69.1532 182.318 68.7587 181.698 68.4488C181.078 68.1389 180.284 67.9839 179.317 67.9839C177.993 67.9839 176.889 68.2891 176.006 68.8996C175.133 69.5007 174.696 70.2661 174.696 71.1959C174.696 72.0223 174.997 72.675 175.598 73.154C176.199 73.633 177.138 74.0322 178.415 74.3515L181.627 75.1404C183.562 75.61 185.004 76.3284 185.952 77.2958C186.901 78.2537 187.375 79.4887 187.375 81.0008C187.375 82.2405 187.018 83.3487 186.304 84.3255C185.6 85.3022 184.614 86.0723 183.346 86.6358C182.078 87.1993 180.604 87.4811 178.923 87.4811C176.716 87.4811 174.889 87.0021 173.442 86.0441C171.996 85.0862 171.08 83.6868 170.695 81.8461L173.851 81.0571C174.152 82.2217 174.72 83.0951 175.556 83.6774C176.401 84.2597 177.504 84.5509 178.866 84.5509C180.416 84.5509 181.646 84.2222 182.557 83.5647C183.478 82.8979 183.938 82.0996 183.938 81.1698C183.938 80.4185 183.675 79.7893 183.149 79.2821C182.623 78.7656 181.815 78.3805 180.726 78.1269L177.119 77.2817C175.138 76.8121 173.682 76.0842 172.752 75.0981C171.832 74.1026 171.372 72.8582 171.372 71.3649C171.372 70.144 171.714 69.0639 172.4 68.1248C173.095 67.1856 174.039 66.4483 175.232 65.913C176.434 65.3777 177.796 65.11 179.317 65.11C181.458 65.11 183.139 65.5796 184.36 66.5188C185.591 67.458 186.464 68.6977 186.981 70.2379ZM201.79 65.3918V68.2093H190.576V65.3918H201.79ZM193.845 60.2076H197.169V80.8317C197.169 81.7709 197.306 82.4753 197.578 82.9449C197.86 83.4051 198.217 83.715 198.649 83.8747C199.09 84.0249 199.555 84.1001 200.043 84.1001C200.41 84.1001 200.71 84.0813 200.945 84.0437C201.18 83.9968 201.368 83.9592 201.508 83.931L202.185 86.9176C201.959 87.0021 201.645 87.0866 201.241 87.1711C200.837 87.2651 200.325 87.312 199.705 87.312C198.766 87.312 197.846 87.1101 196.944 86.7063C196.052 86.3024 195.31 85.6873 194.718 84.8608C194.136 84.0343 193.845 82.9918 193.845 81.7334V60.2076ZM215.631 87.4811C213.546 87.4811 211.748 87.0209 210.236 86.1005C208.733 85.1707 207.573 83.8747 206.756 82.2123C205.948 80.5406 205.545 78.5965 205.545 76.3801C205.545 74.1636 205.948 72.2102 206.756 70.5197C207.573 68.8198 208.71 67.4955 210.165 66.547C211.63 65.589 213.34 65.11 215.293 65.11C216.42 65.11 217.533 65.2979 218.632 65.6735C219.731 66.0492 220.731 66.6597 221.633 67.5049C222.534 68.3408 223.253 69.449 223.788 70.8296C224.323 72.2102 224.591 73.9101 224.591 75.9293V77.338H207.911V74.4642H221.21C221.21 73.2432 220.966 72.1538 220.477 71.1959C219.998 70.2379 219.313 69.4819 218.421 68.9278C217.538 68.3736 216.495 68.0966 215.293 68.0966C213.969 68.0966 212.823 68.4253 211.856 69.0827C210.898 69.7307 210.161 70.576 209.644 71.6185C209.127 72.661 208.869 73.7786 208.869 74.9713V76.8872C208.869 78.5214 209.151 79.9067 209.714 81.0431C210.287 82.1701 211.081 83.0294 212.095 83.6211C213.11 84.2034 214.288 84.4945 215.631 84.4945C216.505 84.4945 217.294 84.3724 217.998 84.1282C218.712 83.8747 219.327 83.499 219.843 83.0012C220.36 82.4941 220.759 81.8648 221.041 81.1135L224.253 82.0151C223.915 83.1045 223.346 84.0625 222.548 84.889C221.75 85.706 220.764 86.3447 219.59 86.8049C218.416 87.2557 217.096 87.4811 215.631 87.4811ZM229.648 87.0303V65.3918H232.86V68.7728H233.142C233.593 67.6176 234.321 66.7207 235.326 66.0821C236.331 65.434 237.537 65.11 238.946 65.11C240.374 65.11 241.562 65.434 242.51 66.0821C243.468 66.7207 244.215 67.6176 244.75 68.7728H244.976C245.53 67.6552 246.361 66.7677 247.469 66.1102C248.577 65.4434 249.906 65.11 251.456 65.11C253.391 65.11 254.973 65.7158 256.203 66.9273C257.434 68.1295 258.049 70.0031 258.049 72.5483V87.0303H254.724V72.5483C254.724 70.9517 254.287 69.8106 253.414 69.125C252.541 68.4394 251.512 68.0966 250.329 68.0966C248.807 68.0966 247.629 68.5568 246.793 69.4772C245.957 70.3882 245.539 71.5433 245.539 72.9427V87.0303H242.158V72.2102C242.158 70.9798 241.759 69.989 240.961 69.2377C240.162 68.477 239.134 68.0966 237.875 68.0966C237.011 68.0966 236.204 68.3267 235.452 68.7869C234.71 69.2471 234.109 69.8857 233.649 70.7028C233.198 71.5105 232.973 72.445 232.973 73.5062V87.0303H229.648Z" fill="white"/>
<path d="M49.2118 93.3562H3.97086C3.75133 93.3562 3.52587 93.3562 3.30634 93.3562C2.92661 93.3562 2.71302 93.2394 2.74862 92.8836C2.74862 92.6871 2.74862 92.4853 2.74862 92.2888C2.74862 76.0548 2.79608 59.8209 2.71895 43.5869C2.65576 41.7528 3.08763 39.9321 3.97796 38.2792C4.86829 36.6263 6.19082 35.1899 7.8334 34.0919C10.8831 31.9146 14.4193 30.6614 18.1632 29.8064C22.314 28.8839 26.5963 28.5258 30.8662 28.7443C35.8972 28.8896 40.8428 29.9483 45.4027 31.8562C46.6064 32.3805 47.7526 33.0045 48.8262 33.7202C48.9352 33.8082 49.0768 33.857 49.2237 33.857C49.3706 33.857 49.5122 33.8082 49.6212 33.7202C53.4304 31.2561 57.7616 30.0029 62.3362 29.27C65.4498 28.7857 68.6132 28.6076 71.77 28.739C76.8228 28.8406 81.7986 29.869 86.3895 31.7606C89.2968 33.0033 91.8719 34.6442 93.7171 37.071C95.0273 38.7681 95.7195 40.7861 95.6988 42.8488V92.4747C95.6988 93.3721 95.6988 93.3721 94.7079 93.3721L49.2118 93.3562ZM54.4331 62.4655C54.4331 68.9548 54.4331 75.4406 54.4331 81.9229C54.4331 82.5017 54.4331 82.4911 54.9967 82.2309C57.1507 81.2602 59.4422 80.5563 61.8081 80.1386C65.7082 79.4092 69.7102 79.2193 73.6746 79.5757C77.4122 79.8554 81.0646 80.7275 84.4612 82.1512C85.191 82.4698 85.191 82.4751 85.191 81.7264C85.191 68.8645 85.191 56.0027 85.191 43.1408C85.1997 42.889 85.1462 42.6385 85.0344 42.4072C84.9227 42.1759 84.7553 41.9695 84.5443 41.8026C83.6004 41.0308 82.5118 40.4142 81.3285 39.9812C78.6545 38.9819 75.8172 38.3775 72.927 38.1915C68.7677 37.8252 64.5686 38.1749 60.5562 39.2218C58.6552 39.6791 56.8772 40.4757 55.329 41.5637C55.0228 41.7689 54.7765 42.0374 54.6112 42.3462C54.4459 42.6551 54.3665 42.9951 54.3797 43.3373C54.4568 49.7151 54.4568 56.093 54.4568 62.4655H54.4331ZM43.9491 62.3858C43.9491 56.0133 43.9491 49.6408 43.9491 43.2683C43.9639 42.9455 43.8913 42.6243 43.7373 42.3321C43.5834 42.0398 43.3527 41.7853 43.065 41.5902C42.2841 41.0143 41.4224 40.5323 40.5018 40.1564C37.724 39.0476 34.7494 38.386 31.7147 38.2022C27.5578 37.834 23.3605 38.1819 19.3498 39.2271C17.4481 39.6851 15.6698 40.4836 14.1226 41.5743C13.8122 41.787 13.5652 42.065 13.4038 42.3837C13.2423 42.7024 13.1713 43.0519 13.1971 43.4011C13.2208 56.1178 13.2208 68.8344 13.1971 81.5511C13.1971 81.6786 13.1971 81.806 13.1971 81.9335C13.1971 82.3371 13.3038 82.4645 13.7548 82.2468C14.8787 81.7073 16.0592 81.2679 17.2791 80.9351C23.4512 79.2108 30.013 78.9257 36.3426 80.1067C38.7937 80.5092 41.1675 81.2245 43.3913 82.2309C43.8007 82.422 43.9372 82.3371 43.9194 81.9441C43.9194 81.7848 43.9194 81.6202 43.9194 81.4555L43.9491 62.3858Z" fill="#F13A51"/>
<path d="M49.2116 0.609375C49.4549 0.694342 49.6982 0.773993 49.9355 0.869581L65.4687 7.0456L96.6479 19.4454C98.0007 19.9765 97.8346 19.7747 97.2946 20.8846C96.1673 23.2105 94.9866 25.5153 93.8593 27.8412C93.622 28.3245 93.3846 28.3988 92.8566 28.1864C85.0603 25.0674 77.2581 21.9608 69.4499 18.8666C62.8878 16.2539 56.3256 13.6411 49.7634 11.0284C49.5935 10.9539 49.4068 10.9151 49.2176 10.9151C49.0284 10.9151 48.8416 10.9539 48.6717 11.0284L22.3222 21.5165C16.6856 23.7575 11.0471 26.0003 5.40652 28.2448C5.02679 28.3935 4.81319 28.3563 4.65299 28.0005C3.3991 25.4515 2.13335 22.9043 0.855721 20.3588C0.659924 19.9659 0.808251 19.8278 1.19391 19.6632C5.89304 17.8045 10.5902 15.9406 15.2854 14.0713L39.8134 4.32667L48.7429 0.768681C48.8853 0.710267 49.0396 0.66779 49.2116 0.609375Z" fill="#F13A51"/>
</svg>
