<svg width="42" height="23" viewBox="0 0 42 23" fill="none" xmlns="http://www.w3.org/2000/svg">
<path d="M40.1099 8.04117L33.4352 1.29752C33.2749 1.13587 33.0841 1.00756 32.8739 0.919996C32.6638 0.832434 32.4383 0.787354 32.2106 0.787354C31.983 0.787354 31.7575 0.832434 31.5474 0.919996C31.3372 1.00756 31.1464 1.13587 30.9861 1.29752C30.6649 1.62067 30.4846 2.0578 30.4846 2.51345C30.4846 2.96909 30.6649 3.40623 30.9861 3.72937L37.1261 9.92111H1.95909C1.50167 9.92111 1.06298 10.1028 0.739533 10.4263C0.416086 10.7497 0.234375 11.1884 0.234375 11.6458C0.234375 12.1033 0.416086 12.5419 0.739533 12.8654C1.06298 13.1888 1.50167 13.3705 1.95909 13.3705H37.2296L30.9861 19.5968C30.8244 19.7571 30.6961 19.9479 30.6086 20.158C30.521 20.3682 30.4759 20.5936 30.4759 20.8213C30.4759 21.049 30.521 21.2744 30.6086 21.4846C30.6961 21.6948 30.8244 21.8855 30.9861 22.0459C31.1464 22.2075 31.3372 22.3358 31.5474 22.4234C31.7575 22.511 31.983 22.556 32.2106 22.556C32.4383 22.556 32.6638 22.511 32.8739 22.4234C33.0841 22.3358 33.2749 22.2075 33.4352 22.0459L40.1099 15.354C41.0788 14.3838 41.623 13.0687 41.623 11.6976C41.623 10.3264 41.0788 9.01132 40.1099 8.04117Z" fill="white"/>
</svg>
